<svg width="26" height="26" viewBox="0 0 26 26" fill="none" xmlns="http://www.w3.org/2000/svg">
<circle cx="13" cy="13" r="13" fill="#F4364C"/>
<path d="M7 17.4954C7 17.0757 7.15166 16.7141 7.45499 16.4108L10.8658 13L7.45499 9.57174C7.15166 9.28005 7 8.92435 7 8.50464C7 8.08492 7.15166 7.72922 7.45499 7.43753C7.75832 7.14584 8.11402 7 8.52209 7C8.93017 7 9.28587 7.14584 9.5892 7.43753L13.0175 10.8658L16.4283 7.43753C16.7199 7.14584 17.0757 7 17.4954 7C17.9151 7 18.2708 7.14584 18.5625 7.43753C18.8542 7.72922 19 8.08492 19 8.50464C19 8.92435 18.8542 9.28005 18.5625 9.57174L15.1517 13L18.5625 16.4108C18.8542 16.7141 19 17.0757 19 17.4954C19 17.9151 18.8542 18.2708 18.5625 18.5625C18.2708 18.8542 17.9151 19 17.4954 19C17.0757 19 16.7199 18.8542 16.4283 18.5625L13.0175 15.1517L9.5892 18.5625C9.29751 18.8542 8.94181 19 8.52209 19C8.10238 19 7.74668 18.8542 7.45499 18.5625C7.15166 18.2591 7 17.9034 7 17.4954Z" fill="white"/>
</svg>
