<svg width="16" height="16" viewBox="0 0 16 16" fill="none" xmlns="http://www.w3.org/2000/svg">
<path fill-rule="evenodd" clip-rule="evenodd" d="M7.9995 0C3.5815 0 0 3.5815 0 7.9995C0 12.4175 3.5815 16 7.9995 16C12.4175 16 16 12.4175 16 7.9995C16 3.5815 12.4175 0 7.9995 0ZM7.9995 2.94952C8.688 2.94952 9.2475 3.50752 9.2475 4.19652C9.2475 4.88552 8.6885 5.44352 7.9995 5.44352C7.311 5.44352 6.7525 4.88552 6.7525 4.19652C6.7525 3.50752 7.3105 2.94952 7.9995 2.94952ZM8.8215 6.60402C8.6075 6.39652 8.3045 6.27502 7.9995 6.27502H7.999C7.694 6.27502 7.392 6.39652 7.178 6.60402C6.964 6.81152 6.841 7.10252 6.8455 7.39402V11.9315C6.8415 12.22 6.962 12.509 7.1725 12.716C7.383 12.923 7.68 13.046 7.982 13.0505C8.2895 13.055 8.598 12.9355 8.8155 12.7275C9.033 12.5195 9.1575 12.2255 9.153 11.9315V7.39402C9.1575 7.10302 9.0355 6.81152 8.8215 6.60402Z" fill="#999999"/>
</svg>
