<svg
	xmlns="http://www.w3.org/2000/svg"
	xmlns:xlink="http://www.w3.org/1999/xlink"
	viewBox="0 0 200 200"
	width="200"
	height="200"
>
	>
	<g>
		<path
			d="M966.5,420.6l-124.3-12.3c-8-29.8-19.9-58.5-35.5-85.4l79.4-96.7c8.5-10.4,7.7-25.5-1.8-35l-75.5-75.5c-5.1-5.1-11.7-7.7-18.5-7.7c-5.9,0-11.7,2-16.6,5.9L677,193.4c-27-15.6-55.6-27.5-85.4-35.5L579.4,33.5C578,20.2,566.8,10,553.4,10H446.6c-13.4,0-24.7,10.2-26,23.5l-12.2,124.4c-29.8,8-58.4,19.9-85.3,35.5L226.3,114c-4.8-4-10.7-5.9-16.6-5.9c-6.7,0-13.4,2.6-18.5,7.7l-75.5,75.5c-9.5,9.5-10.3,24.6-1.8,35l79.4,96.7c-15.6,26.9-27.5,55.5-35.5,85.4L33.6,420.7c-13.4,1.3-23.6,12.5-23.6,26v106.8c0,13.4,10.2,24.7,23.6,26l124.4,12.3c8,29.8,19.9,58.4,35.5,85.3l-79.4,96.7c-8.6,10.4-7.8,25.5,1.7,35l75.5,75.5c5.1,5.1,11.7,7.6,18.5,7.6c5.9,0,11.7-2,16.6-5.9l96.7-79.4c27,15.6,55.5,27.5,85.4,35.5l12.2,124.4c1.3,13.4,12.6,23.5,26,23.5h106.7c13.4,0,24.7-10.2,26-23.5l12.2-124.4c29.9-8,58.4-19.9,85.4-35.6l96.7,79.4c4.8,4,10.7,5.9,16.6,5.9c6.7,0,13.4-2.6,18.5-7.6l75.5-75.5c9.5-9.5,10.3-24.6,1.7-35L806.6,677c15.6-27,27.5-55.5,35.5-85.4l124.3-12.3c13.4-1.3,23.6-12.5,23.6-26V446.6C990,433.2,979.8,422,966.5,420.6z M500,644.6c-79.9,0-144.6-64.7-144.6-144.6c0-79.9,64.7-144.6,144.6-144.6c79.8,0,144.6,64.7,144.6,144.6C644.6,579.8,579.9,644.6,500,644.6z"
		/>
	</g>
</svg>
