<?xml version="1.0" standalone="no"?>
<!DOCTYPE svg PUBLIC "-//W3C//DTD SVG 20010904//EN" "http://www.w3.org/TR/2001/REC-SVG-20010904/DTD/svg10.dtd">
<svg
	version="1.0"
	xmlns="http://www.w3.org/2000/svg"
	width="48.000000pt"
	height="48.000000pt"
	viewBox="0 0 48.000000 48.000000"
	preserveAspectRatio="xMidYMid meet"
>
	<g transform="translate(0.000000,48.000000) scale(0.100000,-0.100000)" fill="#242424" stroke="none">
		<path
			d="M4 467 c-3 -8 -4 -43 -2 -78 l3 -64 105 0 105 0 0 75 0 75 -103 3
c-80 2 -104 0 -108 -11z m196 -67 l0 -60 -90 0 -90 0 0 60 0 60 90 0 90 0 0
-60z"
		/>
		<path
			d="M264 467 c-2 -7 -3 -69 -2 -138 l3 -124 105 0 105 0 0 135 0 135
-103 3 c-78 2 -104 0 -108 -11z m196 -127 l0 -120 -90 0 -90 0 0 120 0 120 90
0 90 0 0 -120z"
		/>
		<path
			d="M4 267 c-2 -7 -3 -69 -2 -138 l3 -124 105 0 105 0 0 135 0 135 -103
3 c-78 2 -104 0 -108 -11z m196 -127 l0 -120 -90 0 -90 0 0 120 0 120 90 0 90
0 0 -120z"
		/>
		<path
			d="M264 147 c-3 -8 -4 -43 -2 -78 l3 -64 105 0 105 0 0 75 0 75 -103 3
c-80 2 -104 0 -108 -11z m196 -67 l0 -60 -90 0 -90 0 0 60 0 60 90 0 90 0 0
-60z"
		/>
	</g>
</svg>
