<svg width="10" height="10" viewBox="0 0 10 10" fill="none" xmlns="http://www.w3.org/2000/svg">
<path d="M0 8.63083C0 8.29183 0.122498 7.99984 0.367493 7.75484L3.12237 4.99996L0.367493 2.23098C0.122498 1.99539 0 1.70809 0 1.36909C0 1.03009 0.122498 0.742797 0.367493 0.507202C0.612489 0.271606 0.899786 0.153809 1.22938 0.153809C1.55898 0.153809 1.84628 0.271606 2.09128 0.507202L4.86025 3.27618L7.61513 0.507202C7.85073 0.271606 8.13803 0.153809 8.47702 0.153809C8.81602 0.153809 9.10332 0.271606 9.33891 0.507202C9.57451 0.742797 9.69231 1.03009 9.69231 1.36909C9.69231 1.70809 9.57451 1.99539 9.33891 2.23098L6.58404 4.99996L9.33891 7.75484C9.57451 7.99984 9.69231 8.29183 9.69231 8.63083C9.69231 8.96983 9.57451 9.25713 9.33891 9.49272C9.10332 9.72832 8.81602 9.84612 8.47702 9.84612C8.13803 9.84612 7.85073 9.72832 7.61513 9.49272L4.86025 6.73784L2.09128 9.49272C1.85568 9.72832 1.56838 9.84612 1.22938 9.84612C0.890386 9.84612 0.603089 9.72832 0.367493 9.49272C0.122498 9.24773 0 8.96043 0 8.63083Z" fill="#333333"/>
</svg>
